<svg xmlns="http://www.w3.org/2000/svg" version="1.1" xmlns:xlink="http://www.w3.org/1999/xlink" width="512" height="512" x="0" y="0" viewBox="0 0 512 512" style="enable-background:new 0 0 512 512" xml:space="preserve" class=""><g><path d="M437.066 74.981c-5.857-5.858-15.355-5.858-21.213 0s-5.858 15.355 0 21.213C458.509 138.849 482 195.603 482 256s-23.491 117.151-66.147 159.806c-5.858 5.857-5.858 15.355 0 21.213 5.868 5.868 15.365 5.848 21.213 0C485.388 388.698 512 324.411 512 256s-26.612-132.698-74.934-181.019z" fill="#ffffff" opacity="1" data-original="#000000" class=""></path><path d="M391.646 120.4c-5.858-5.857-15.356-5.857-21.213 0-5.857 5.858-5.857 15.355 0 21.213 30.533 30.531 47.349 71.155 47.349 114.387s-16.815 83.855-47.349 114.387c-5.858 5.858-5.858 15.355 0 21.213 5.856 5.856 15.353 5.859 21.213 0 36.2-36.198 56.136-84.355 56.136-135.601s-19.937-99.402-56.136-135.599z" fill="#ffffff" opacity="1" data-original="#000000" class=""></path><path d="M346.193 165.852c-5.858-5.857-15.356-5.857-21.213 0-5.858 5.858-5.857 15.356 0 21.213 18.4 18.398 28.533 42.88 28.533 68.934s-10.133 50.536-28.533 68.934c-5.858 5.857-5.858 15.355 0 21.213 5.857 5.857 15.354 5.859 21.213 0 24.066-24.065 37.32-56.08 37.32-90.148s-13.254-66.081-37.32-90.146zM30 256c0-60.397 23.491-117.151 66.147-159.806 5.858-5.857 5.858-15.355 0-21.213-5.857-5.857-15.354-5.858-21.213 0C26.612 123.302 0 187.589 0 256s26.612 132.698 74.934 181.019c5.856 5.857 15.355 5.859 21.213 0 5.858-5.858 5.858-15.355 0-21.213C53.491 373.151 30 316.397 30 256z" fill="#ffffff" opacity="1" data-original="#000000" class=""></path><path d="M94.219 256c0-43.232 16.815-83.855 47.349-114.387 5.858-5.858 5.858-15.355 0-21.213-5.857-5.858-15.355-5.857-21.213 0-36.2 36.197-56.136 84.355-56.136 135.6s19.936 99.403 56.136 135.601c5.866 5.865 15.363 5.85 21.213 0 5.857-5.858 5.857-15.355 0-21.213C111.034 339.856 94.219 299.232 94.219 256z" fill="#ffffff" opacity="1" data-original="#000000" class=""></path><path d="M187.021 165.853c-5.857-5.858-15.355-5.858-21.213 0-24.066 24.065-37.32 56.08-37.32 90.148s13.254 66.083 37.32 90.148c5.866 5.865 15.363 5.85 21.213 0 5.858-5.858 5.857-15.356 0-21.213-18.4-18.398-28.533-42.88-28.533-68.934s10.133-50.536 28.533-68.934c5.857-5.859 5.857-15.357 0-21.215z" fill="#ffffff" opacity="1" data-original="#000000" class=""></path><path d="M256 192.8c-34.849 0-63.2 28.352-63.2 63.2s28.352 63.2 63.2 63.2 63.2-28.352 63.2-63.2-28.351-63.2-63.2-63.2z" fill="#ffffff" opacity="1" data-original="#000000" class=""></path></g></svg>