<svg xmlns="http://www.w3.org/2000/svg" version="1.1" xmlns:xlink="http://www.w3.org/1999/xlink" width="512" height="512" x="0" y="0" viewBox="0 0 60 60" style="enable-background:new 0 0 512 512" xml:space="preserve" class=""><g><path d="M49.26 23.86c-4.54-1.52-10.17-.64-15.87 2.48-.02-.01-.03-.03-.05-.04.68-2.08 1.88-4.52 3.1-6.26 1.02-1.45 2.57-2.49 4.36-2.92l2.78-.66c.73-.18 1.32-.71 1.59-1.41.26-.69.18-1.45-.24-2.06-3.32-4.8-10.82-8.59-17.17-6.32-1.8.64-3.26 2.17-3.9 4.07-1.52 4.54-.64 10.17 2.48 15.87-.01.02-.03.03-.04.05-2.08-.68-4.52-1.88-6.26-3.1-1.45-1.02-2.49-2.57-2.92-4.36l-.66-2.78c-.18-.73-.71-1.32-1.41-1.59-.69-.26-1.45-.18-2.06.24-4.8 3.32-8.59 10.82-6.32 17.17.64 1.8 2.17 3.26 4.07 3.9 1.46.49 3.02.73 4.67.73 3.49 0 7.33-1.09 11.21-3.21.02.01.03.03.05.04-.68 2.08-1.88 4.52-3.1 6.26-1.02 1.45-2.57 2.49-4.36 2.92l-2.78.66c-.73.18-1.32.71-1.59 1.41-.26.69-.18 1.46.24 2.06 2.64 3.82 7.93 7 13.17 7 1.35 0 2.7-.21 3.99-.67 1.8-.64 3.26-2.17 3.9-4.07 1.52-4.54.64-10.17-2.48-15.87.01-.02.03-.03.04-.05 2.08.68 4.51 1.88 6.26 3.1 1.45 1.02 2.49 2.57 2.92 4.36l.66 2.78a2.299 2.299 0 0 0 2.22 1.74c.44 0 .88-.13 1.25-.39 4.8-3.32 8.59-10.82 6.32-17.17-.64-1.81-2.16-3.27-4.07-3.91zM27 30c0-1.65 1.35-3 3-3s3 1.35 3 3-1.35 3-3 3-3-1.35-3-3zm-1.24-18.62c.45-1.33 1.45-2.39 2.68-2.83 5.28-1.88 11.94 1.36 14.85 5.57.05.08.04.16.02.21-.02.04-.07.15-.19.18l-2.77.66c-2.27.55-4.23 1.87-5.53 3.72-1.25 1.77-2.48 4.22-3.23 6.38-.52-.16-1.04-.27-1.59-.27-.72 0-1.4.16-2.01.43-2.75-5.13-3.55-10.1-2.23-14.05zM11.38 34.24c-1.33-.45-2.39-1.45-2.83-2.68-1.88-5.28 1.36-11.94 5.57-14.85.08-.05.16-.04.21-.02.04.02.15.07.18.19l.66 2.77c.55 2.27 1.87 4.23 3.72 5.53 1.77 1.25 4.22 2.48 6.38 3.23-.16.52-.27 1.04-.27 1.59 0 .72.16 1.4.43 2.01-5.13 2.75-10.1 3.55-14.05 2.23zm22.86 14.38c-.45 1.33-1.45 2.39-2.68 2.83-5.28 1.88-11.94-1.36-14.85-5.57a.25.25 0 0 1-.02-.22c.02-.04.07-.15.19-.18l2.77-.66c2.27-.55 4.23-1.87 5.53-3.72 1.25-1.77 2.48-4.22 3.23-6.38.52.17 1.04.28 1.59.28.72 0 1.4-.16 2.01-.43 2.75 5.13 3.55 10.1 2.23 14.05zm11.64-5.34a.25.25 0 0 1-.22.02c-.04-.02-.15-.07-.18-.19l-.66-2.77c-.55-2.27-1.87-4.23-3.72-5.53-1.78-1.25-4.22-2.48-6.38-3.23.17-.51.28-1.03.28-1.58 0-.72-.16-1.4-.43-2.01 5.13-2.75 10.1-3.55 14.05-2.23 1.33.45 2.39 1.45 2.83 2.68 1.88 5.28-1.36 11.94-5.57 14.84z" fill="#ffffff" opacity="1" data-original="#000000" class=""></path></g></svg>