<svg xmlns="http://www.w3.org/2000/svg" version="1.1" xmlns:xlink="http://www.w3.org/1999/xlink" width="512" height="512" x="0" y="0" viewBox="0 0 60 60" style="enable-background:new 0 0 512 512" xml:space="preserve" class=""><g><path d="m40.8 17.12 2.78-.66c.73-.18 1.32-.71 1.59-1.41.27-.69.18-1.45-.23-2.06-3.32-4.8-10.83-8.59-17.17-6.32-1.81.64-3.27 2.16-3.91 4.07-1.35 4.04-.79 8.95 1.54 13.99a6.967 6.967 0 0 1 8.69-.4c.66-1.53 1.5-3.08 2.35-4.29 1.02-1.45 2.57-2.49 4.36-2.92zM15.41 36.86c2.93 0 6.1-.77 9.32-2.26a6.967 6.967 0 0 1-.4-8.69c-1.53-.66-3.07-1.5-4.28-2.35-1.45-1.02-2.49-2.57-2.92-4.36l-.67-2.78c-.18-.73-.7-1.32-1.41-1.59-.68-.26-1.45-.18-2.06.23-4.8 3.32-8.58 10.83-6.32 17.17.64 1.81 2.17 3.27 4.08 3.91 1.45.48 3.02.72 4.66.72zM30 37c-1.53 0-2.94-.5-4.09-1.33-.66 1.52-1.5 3.07-2.35 4.28-1.02 1.45-2.57 2.49-4.36 2.93l-2.78.66c-.72.18-1.32.7-1.59 1.41-.26.68-.17 1.45.24 2.06C17.71 50.83 23 54 28.24 54c1.35 0 2.7-.21 4-.67 1.8-.64 3.26-2.17 3.9-4.08 1.35-4.03.8-8.94-1.53-13.99A7 7 0 0 1 30 37zM49.26 23.86c-4.04-1.36-8.95-.8-14 1.54A6.955 6.955 0 0 1 37 30c0 1.53-.5 2.93-1.33 4.09 1.53.66 3.08 1.5 4.29 2.35 1.45 1.02 2.49 2.57 2.92 4.36l.66 2.78c.18.72.71 1.32 1.41 1.59.26.1.53.15.81.15.44 0 .88-.13 1.25-.39 4.8-3.31 8.59-10.82 6.32-17.17-.64-1.8-2.16-3.26-4.07-3.9z" fill="#ffffff" opacity="1" data-original="#000000" class=""></path><circle cx="30" cy="30" r="5" fill="#ffffff" opacity="1" data-original="#000000" class=""></circle></g></svg>