<svg xmlns="http://www.w3.org/2000/svg" version="1.1" xmlns:xlink="http://www.w3.org/1999/xlink" width="512" height="512" x="0" y="0" viewBox="0 0 59 59" style="enable-background:new 0 0 512 512" xml:space="preserve"><g><path d="M30.741 59h18.518a1 1 0 0 0 .992-.872L53.238 35H26.762l2.987 23.128a1 1 0 0 0 .992.872zM26.535 15.856a11.039 11.039 0 0 0 6.194 1.682 18.8 18.8 0 0 0 5.023-.725 19.494 19.494 0 0 1 1.2 4.841L38.986 24H25a1 1 0 0 0-.992 1.129l.911 7a1 1 0 0 0 .991.871h28.18a1 1 0 0 0 .991-.871l.911-7A1 1 0 0 0 55 24H41l.048-2.342c.182-1.661.586-3.29 1.2-4.844 1.634.467 3.323.71 5.022.724 2.186.065 4.341-.52 6.194-1.682 4.8-3.213 5.5-10.612 5.531-10.926a.909.909 0 0 0-.014-.181c0-.04-.004-.08-.009-.119a1 1 0 0 0-.139-.336v-.008c-.01-.015-.026-.022-.036-.036a1.039 1.039 0 0 0-.215-.214 1.119 1.119 0 0 0-.117-.065.861.861 0 0 0-.126-.07c-.288-.1-7.12-2.495-11.94.732-4.334 2.9-5.325 9.2-5.5 10.63a5.744 5.744 0 0 0-.9 1.869 5.852 5.852 0 0 0-.9-1.878c-.175-1.442-1.171-7.724-5.5-10.621C28.784 1.407 21.952 3.8 21.663 3.9a.9.9 0 0 0-.126.07c-.04.02-.079.04-.116.065a1 1 0 0 0-.216.214c-.01.014-.026.021-.036.036v.008a1 1 0 0 0-.139.336c-.005.04-.008.08-.009.119A.909.909 0 0 0 21 4.93c.032.314.736 7.713 5.535 10.926zM30 29h-2a1 1 0 0 1 0-2h2a1 1 0 0 1 0 2zm11-2a1 1 0 0 1 0 2h-7a1 1 0 0 1 0-2zM8 21.46A4 4 0 0 0 14 18V4a4 4 0 1 0-8 0v14a3.98 3.98 0 0 0 2 3.46zM10 3a1 1 0 1 1 0 2 1 1 0 0 1 0-2zM8 23.65v3.44a.037.037 0 0 1 .01.03c.55 5.5 1.44 8.17 1.99 8.79.55-.62 1.44-3.29 1.99-8.79a.037.037 0 0 1 .01-.03v-3.44a5.889 5.889 0 0 1-4 0z" fill="#ffffff" opacity="1" data-original="#000000"></path><path d="M10 58c5 0 10-14.8 10-22.143 0-5.5-2.519-7.734-6.109-8.5C12.879 38 10.862 38 10 38s-2.879 0-3.891-10.648c-3.59.771-6.109 3-6.109 8.5C0 43.2 5 58 10 58z" fill="#ffffff" opacity="1" data-original="#000000"></path></g></svg>