<svg xmlns="http://www.w3.org/2000/svg" version="1.1" xmlns:xlink="http://www.w3.org/1999/xlink" width="512" height="512" x="0" y="0" viewBox="0 0 64 64" style="enable-background:new 0 0 512 512" xml:space="preserve" class=""><g><path d="M61.284 13.418c-1.822-2.167-4.283-3.373-6.942-3.398h-.05c-2.486 0-4.824 1.034-6.622 2.955l1.724 1.723c1.378-1.428 3.102-2.216 4.899-2.216h.049c1.896.025 3.693.911 5.047 2.511 2.486 2.954 2.83 7.435 1.058 10.881l1.822 1.847c2.585-4.407 2.29-10.438-.985-14.303zm-22.87 32.126-11.62.099-.369-5.44 7.46-1.035zm-14.008 1.108-3.028 2.659a.725.725 0 0 1-1.206-.493l-.788-10.832c-.049-.59.616-.984 1.133-.664l3.372 2.19zM46.144 14.97l-16.543 13.86-.911-1.28c-.517-.74-.394-1.773.32-2.34l13.663-11.496c.714-.566 1.723-.541 2.363.123zm14.993 20.507L47.203 47.169a3.496 3.496 0 0 1-5.096-.665L31.029 30.847l16.863-14.13 13.49 13.613c1.453 1.453 1.33 3.816-.245 5.146zM1.23 50.203a1.233 1.233 0 0 1-1.103-1.774c.39-.796.847-1.563 1.358-2.284a1.233 1.233 0 0 1 2.007 1.428 13.96 13.96 0 0 0-1.156 1.942 1.23 1.23 0 0 1-1.106.688zm5.173-5.905a1.23 1.23 0 0 1-.674-2.262c.4-.26.821-.514 1.267-.755a1.232 1.232 0 0 1 1.168 2.169c-.383.206-.745.423-1.089.649-.208.134-.44.2-.672.2zm6.387-2.425a1.23 1.23 0 0 1-.182-2.448c.872-.132 1.758-.2 2.632-.202h.003a1.23 1.23 0 0 1 .004 2.462c-.755.002-1.52.06-2.273.173-.063.01-.124.015-.184.015zM5.79 53.98a1.23 1.23 0 0 1-1.128-1.724c.17-.387.365-.791.586-1.197a1.231 1.231 0 0 1 2.164 1.173c-.185.344-.35.68-.492 1.01a1.234 1.234 0 0 1-1.13.738zm3.696-4.854a1.23 1.23 0 0 1-.74-2.217l.285-.209a1.232 1.232 0 0 1 1.438 2l-.247.18c-.22.166-.48.246-.736.246zm4.832-1.972a1.23 1.23 0 0 1-.15-2.452c.477-.06.936-.086 1.37-.089h.007a1.231 1.231 0 0 1 .007 2.462 9.55 9.55 0 0 0-1.081.07c-.052.007-.103.01-.153.01z" fill="#ffffff" opacity="1" data-original="#000000" class=""></path></g></svg>