<svg xmlns="http://www.w3.org/2000/svg" version="1.1" xmlns:xlink="http://www.w3.org/1999/xlink" width="512" height="512" x="0" y="0" viewBox="0 0 511.999 511.999" style="enable-background:new 0 0 512 512" xml:space="preserve"><g><path d="M107.08 293.963c-4.8 6.825-3.111 16.219 3.71 20.96l10.309 7.159a90.715 90.715 0 0 1-62.959 25.421H30v-32.5c0-8.284-6.716-15-15-15s-15 6.716-15 15v153c0 8.284 6.716 15 15 15s15-6.716 15-15v-30.5h20.332c53.832 0 106.476-22.636 143.872-64.651l15.006 10.421c6.813 4.758 16.265 3.012 20.95-3.88l10.28-15.09-121.69-86.91zM505.46 295.303l-5.53-3.78-115.05 91.93 32.92 23.7c6.429 4.627 15.419 3.458 20.43-2.76l70.44-87.28c5.522-6.845 3.985-16.903-3.21-21.81zM482.167 242.977 193.739 34.683c-12.955-9.358-30.943-6.926-40.951 5.532L57.997 158.2c-10.78 13.421-8.059 33.196 5.953 43.203l255.171 182.225a15 15 0 0 0 18.08-.488l145.547-116.283c7.734-6.178 7.467-18.069-.581-23.88zM376 269.503c-8.284 0-15-6.716-15-15s6.716-15 15-15 15 6.716 15 15-6.716 15-15 15z" fill="#ffffff" opacity="1" data-original="#000000"></path></g></svg>